<?xml version="1.0" encoding="UTF-8" standalone="no"?>
<!DOCTYPE svg PUBLIC "-//W3C//DTD SVG 1.1//EN"
 "http://www.w3.org/Graphics/SVG/1.1/DTD/svg11.dtd">
<!-- Generated by graphviz version 2.40.1 (20161225.0304)
 -->
<!-- Title: %3 Pages: 1 -->
<svg width="834pt" height="332pt"
 viewBox="0.00 0.00 834.26 332.00" xmlns="http://www.w3.org/2000/svg" xmlns:xlink="http://www.w3.org/1999/xlink">
<g id="graph0" class="graph" transform="scale(1 1) rotate(0) translate(4 328)">
<title>%3</title>
<polygon fill="#ffffff" stroke="transparent" points="-4,4 -4,-328 830.2641,-328 830.2641,4 -4,4"/>
<!-- [root] aws_instance.web (expand) -->
<g id="node1" class="node">
<title>[root] aws_instance.web (expand)</title>
<polygon fill="none" stroke="#000000" points="511.2843,-180 396.2843,-180 396.2843,-144 511.2843,-144 511.2843,-180"/>
<text text-anchor="middle" x="453.7843" y="-158.3" font-family="Times,serif" font-size="14.00" fill="#000000">aws_instance.web</text>
</g>
<!-- [root] data.aws_ami.ubuntu (expand) -->
<g id="node3" class="node">
<title>[root] data.aws_ami.ubuntu (expand)</title>
<polygon fill="none" stroke="#000000" points="510.2843,-108 377.2843,-108 377.2843,-72 510.2843,-72 510.2843,-108"/>
<text text-anchor="middle" x="443.7843" y="-86.3" font-family="Times,serif" font-size="14.00" fill="#000000">data.aws_ami.ubuntu</text>
</g>
<!-- [root] aws_instance.web (expand)&#45;&gt;[root] data.aws_ami.ubuntu (expand) -->
<g id="edge1" class="edge">
<title>[root] aws_instance.web (expand)&#45;&gt;[root] data.aws_ami.ubuntu (expand)</title>
<path fill="none" stroke="#000000" d="M451.2609,-143.8314C450.1914,-136.131 448.9196,-126.9743 447.7311,-118.4166"/>
<polygon fill="#000000" stroke="#000000" points="451.1842,-117.8367 446.3417,-108.4133 444.2508,-118.7997 451.1842,-117.8367"/>
</g>
<!-- [root] aws_vpc.example (expand) -->
<g id="node2" class="node">
<title>[root] aws_vpc.example (expand)</title>
<polygon fill="none" stroke="#000000" points="377.7843,-180 263.7843,-180 263.7843,-144 377.7843,-144 377.7843,-180"/>
<text text-anchor="middle" x="320.7843" y="-158.3" font-family="Times,serif" font-size="14.00" fill="#000000">aws_vpc.example</text>
</g>
<!-- [root] provider[&quot;registry.terraform.io/hashicorp/aws&quot;] -->
<g id="node4" class="node">
<title>[root] provider[&quot;registry.terraform.io/hashicorp/aws&quot;]</title>
<polygon fill="none" stroke="#000000" points="386.7843,-36 134.2476,-18 386.7843,0 639.321,-18 386.7843,-36"/>
<text text-anchor="middle" x="386.7843" y="-14.3" font-family="Times,serif" font-size="14.00" fill="#000000">provider[&quot;registry.terraform.io/hashicorp/aws&quot;]</text>
</g>
<!-- [root] aws_vpc.example (expand)&#45;&gt;[root] provider[&quot;registry.terraform.io/hashicorp/aws&quot;] -->
<g id="edge2" class="edge">
<title>[root] aws_vpc.example (expand)&#45;&gt;[root] provider[&quot;registry.terraform.io/hashicorp/aws&quot;]</title>
<path fill="none" stroke="#000000" d="M329.1433,-143.7623C340.6116,-118.7405 361.3046,-73.5921 374.5263,-44.7447"/>
<polygon fill="#000000" stroke="#000000" points="377.7148,-46.1882 378.6997,-35.6392 371.3513,-43.2716 377.7148,-46.1882"/>
</g>
<!-- [root] data.aws_ami.ubuntu (expand)&#45;&gt;[root] provider[&quot;registry.terraform.io/hashicorp/aws&quot;] -->
<g id="edge3" class="edge">
<title>[root] data.aws_ami.ubuntu (expand)&#45;&gt;[root] provider[&quot;registry.terraform.io/hashicorp/aws&quot;]</title>
<path fill="none" stroke="#000000" d="M429.4008,-71.8314C422.5647,-63.1962 414.2788,-52.7299 406.8376,-43.3304"/>
<polygon fill="#000000" stroke="#000000" points="409.5246,-41.0857 400.5733,-35.4177 404.0362,-45.4307 409.5246,-41.0857"/>
</g>
<!-- [root] meta.count&#45;boundary (EachMode fixup) -->
<g id="node5" class="node">
<title>[root] meta.count&#45;boundary (EachMode fixup)</title>
<ellipse fill="none" stroke="#000000" cx="176.7843" cy="-234" rx="176.5689" ry="18"/>
<text text-anchor="middle" x="176.7843" y="-230.3" font-family="Times,serif" font-size="14.00" fill="#000000">[root] meta.count&#45;boundary (EachMode fixup)</text>
</g>
<!-- [root] meta.count&#45;boundary (EachMode fixup)&#45;&gt;[root] aws_instance.web (expand) -->
<g id="edge4" class="edge">
<title>[root] meta.count&#45;boundary (EachMode fixup)&#45;&gt;[root] aws_instance.web (expand)</title>
<path fill="none" stroke="#000000" d="M242.5689,-217.2776C281.6385,-207.3009 332.4061,-194.259 386.3099,-180.1123"/>
<polygon fill="#000000" stroke="#000000" points="387.2691,-183.4792 396.0513,-177.5526 385.4901,-176.709 387.2691,-183.4792"/>
</g>
<!-- [root] meta.count&#45;boundary (EachMode fixup)&#45;&gt;[root] aws_vpc.example (expand) -->
<g id="edge5" class="edge">
<title>[root] meta.count&#45;boundary (EachMode fixup)&#45;&gt;[root] aws_vpc.example (expand)</title>
<path fill="none" stroke="#000000" d="M212.3798,-216.2022C231.4472,-206.6686 255.1369,-194.8237 275.5031,-184.6406"/>
<polygon fill="#000000" stroke="#000000" points="277.2191,-187.6958 284.5981,-180.0931 274.0885,-181.4348 277.2191,-187.6958"/>
</g>
<!-- [root] provider[&quot;registry.terraform.io/hashicorp/aws&quot;] (close) -->
<g id="node6" class="node">
<title>[root] provider[&quot;registry.terraform.io/hashicorp/aws&quot;] (close)</title>
<ellipse fill="none" stroke="#000000" cx="598.7843" cy="-234" rx="227.4596" ry="18"/>
<text text-anchor="middle" x="598.7843" y="-230.3" font-family="Times,serif" font-size="14.00" fill="#000000">[root] provider[&quot;registry.terraform.io/hashicorp/aws&quot;] (close)</text>
</g>
<!-- [root] provider[&quot;registry.terraform.io/hashicorp/aws&quot;] (close)&#45;&gt;[root] aws_instance.web (expand) -->
<g id="edge6" class="edge">
<title>[root] provider[&quot;registry.terraform.io/hashicorp/aws&quot;] (close)&#45;&gt;[root] aws_instance.web (expand)</title>
<path fill="none" stroke="#000000" d="M562.9416,-216.2022C543.7419,-206.6686 519.8876,-194.8237 499.38,-184.6406"/>
<polygon fill="#000000" stroke="#000000" points="500.7351,-181.4058 490.2218,-180.0931 497.6218,-187.6754 500.7351,-181.4058"/>
</g>
<!-- [root] provider[&quot;registry.terraform.io/hashicorp/aws&quot;] (close)&#45;&gt;[root] aws_vpc.example (expand) -->
<g id="edge7" class="edge">
<title>[root] provider[&quot;registry.terraform.io/hashicorp/aws&quot;] (close)&#45;&gt;[root] aws_vpc.example (expand)</title>
<path fill="none" stroke="#000000" d="M529.9654,-216.7824C490.883,-206.9315 440.8038,-194.1875 387.9126,-180.2793"/>
<polygon fill="#000000" stroke="#000000" points="388.5677,-176.8325 378.0059,-177.6692 386.7842,-183.6015 388.5677,-176.8325"/>
</g>
<!-- [root] root -->
<g id="node7" class="node">
<title>[root] root</title>
<ellipse fill="none" stroke="#000000" cx="387.7843" cy="-306" rx="47.3916" ry="18"/>
<text text-anchor="middle" x="387.7843" y="-302.3" font-family="Times,serif" font-size="14.00" fill="#000000">[root] root</text>
</g>
<!-- [root] root&#45;&gt;[root] meta.count&#45;boundary (EachMode fixup) -->
<g id="edge8" class="edge">
<title>[root] root&#45;&gt;[root] meta.count&#45;boundary (EachMode fixup)</title>
<path fill="none" stroke="#000000" d="M352.4677,-293.9488C321.1288,-283.255 274.6686,-267.4013 237.3966,-254.6828"/>
<polygon fill="#000000" stroke="#000000" points="238.2364,-251.2713 227.6419,-251.3543 235.9758,-257.8963 238.2364,-251.2713"/>
</g>
<!-- [root] root&#45;&gt;[root] provider[&quot;registry.terraform.io/hashicorp/aws&quot;] (close) -->
<g id="edge9" class="edge">
<title>[root] root&#45;&gt;[root] provider[&quot;registry.terraform.io/hashicorp/aws&quot;] (close)</title>
<path fill="none" stroke="#000000" d="M423.101,-293.9488C454.2245,-283.3285 500.2621,-267.619 537.4023,-254.9455"/>
<polygon fill="#000000" stroke="#000000" points="538.795,-258.1685 547.1289,-251.6265 536.5344,-251.5436 538.795,-258.1685"/>
</g>
</g>
</svg>
